# xmcd
# 
# Track frame offsets:
#     150
#     23959
#     47476
#     69738
#     90430
#     114239
#     137756
# 
# Disc length: 2133
# 
# Revision: 0
# Processed by: cddbd v1.5.2PL0 Copyright (c) Steve Scherf et al.
# Submitted via: fre:ac v1.1beta1pre3
# 
DISCID=54085307
DTITLE=藤田麻衣子 - この恋のストーリー
DYEAR=2014
DGENRE=
TTITLE0=この恋のストーリー
TTITLE1=オレンジ
TTITLE2=このまま電車に乗って
TTITLE3=涙が止まらないのは
TTITLE4=この恋のストーリー (instrumental)
TTITLE5=オレンジ (instrumental)
TTITLE6=このまま電車に乗って (instrumental)
EXTD=
EXTT0=
EXTT1=
EXTT2=
EXTT3=
EXTT4=
EXTT5=
EXTT6=
PLAYORDER=
